<svg width="67" height="64" viewBox="0 0 67 64" fill="none" xmlns="http://www.w3.org/2000/svg">
<path d="M16.7237 54.5836C16.5256 54.5836 16.3256 54.5235 16.1527 54.3988C15.7148 54.0829 15.6157 53.472 15.9316 53.034L17.2072 51.2652C17.5229 50.8272 18.1342 50.7283 18.572 51.0441C19.0099 51.36 19.109 51.9709 18.7931 52.4089L17.5175 54.1777C17.3264 54.4427 17.0272 54.5836 16.7237 54.5836V54.5836Z" fill="#DA387D"/>
<path d="M11.5324 48.1373C11.1546 48.1373 10.7949 47.9171 10.6349 47.5484C10.4201 47.053 10.6474 46.4773 11.1428 46.2624L13.1446 45.3941C13.6398 45.1791 14.2156 45.4067 14.4306 45.902C14.6454 46.3973 14.4181 46.9731 13.9227 47.1879L11.9209 48.0562C11.7943 48.1114 11.6622 48.1373 11.5324 48.1373V48.1373Z" fill="#DA387D"/>
<path d="M12.4728 40.2138C12.4581 40.2138 12.4434 40.2136 12.4285 40.2128L10.2473 40.1154C9.70789 40.0913 9.29011 39.6347 9.31423 39.0951C9.33834 38.5557 9.79654 38.1324 10.3345 38.1622L12.5157 38.2596C13.0551 38.2837 13.4729 38.7403 13.4488 39.2799C13.4253 39.8043 12.9927 40.2138 12.4728 40.2138V40.2138Z" fill="#DA387D"/>
<path d="M13.4759 33.0888C13.4001 33.0888 13.323 33.0799 13.2461 33.0613L11.1251 32.5502C10.6002 32.4237 10.2772 31.8957 10.4036 31.3707C10.5302 30.8458 11.0587 30.5228 11.5831 30.6494L13.7041 31.1605C14.229 31.2869 14.552 31.815 14.4256 32.3399C14.3176 32.7878 13.9172 33.0888 13.4759 33.0888Z" fill="#DA387D"/>
<path d="M15.8184 26.2849C15.6831 26.2849 15.5457 26.2566 15.4145 26.1971L13.4279 25.2941C12.9363 25.0707 12.719 24.4911 12.9424 23.9994C13.1659 23.5079 13.7453 23.2906 14.237 23.5139L16.2236 24.4168C16.7151 24.6403 16.9324 25.2198 16.709 25.7115C16.5451 26.0721 16.1899 26.2849 15.8184 26.2849Z" fill="#DA387D"/>
<path d="M19.4096 20.0497C19.2135 20.0497 19.0155 19.9909 18.8436 19.8685L17.0632 18.6017C16.6233 18.2888 16.5204 17.6783 16.8334 17.2384C17.1464 16.7983 17.7568 16.6955 18.1968 17.0084L19.9771 18.2752C20.4171 18.5882 20.5199 19.1986 20.207 19.6386C20.0162 19.9068 19.7153 20.0497 19.4096 20.0497Z" fill="#DA387D"/>
<path d="M24.1201 14.6085C23.8626 14.6085 23.6057 14.5075 23.4137 14.3069L21.9037 12.7291C21.5303 12.3391 21.5439 11.7202 21.9341 11.3468C22.3241 10.9734 22.943 10.987 23.3163 11.3771L24.8263 12.9549C25.1997 13.3449 25.1861 13.9638 24.796 14.3371C24.6066 14.5186 24.3632 14.6085 24.1201 14.6085Z" fill="#DA387D"/>
<path d="M29.7695 10.1514C29.4483 10.1514 29.1336 9.99314 28.9467 9.70311L27.7645 7.86772C27.4721 7.41383 27.6031 6.80873 28.057 6.51635C28.5108 6.22409 29.1159 6.35497 29.4084 6.80886L30.5906 8.64424C30.8829 9.09813 30.7519 9.70324 30.2981 9.99562C30.1342 10.1009 29.9508 10.1514 29.7695 10.1514V10.1514Z" fill="#DA387D"/>
<path d="M36.1627 6.84964C35.7752 6.84964 35.4085 6.61774 35.2552 6.23606L34.4419 4.21102C34.2407 3.70994 34.4838 3.14068 34.9848 2.93941C35.4858 2.73841 36.055 2.98113 36.2563 3.48234L37.0696 5.50738C37.2709 6.00846 37.0277 6.57772 36.5267 6.77898C36.4074 6.82682 36.284 6.84964 36.1627 6.84964V6.84964Z" fill="#DA387D"/>
<path d="M43.0638 4.81922C42.6044 4.81922 42.1949 4.49398 42.1049 4.02614L41.6925 1.88208C41.5904 1.35193 41.9376 0.839384 42.4678 0.737316C42.9984 0.635901 43.5107 0.982642 43.6126 1.51266L44.025 3.65672C44.1271 4.18687 43.78 4.69942 43.2497 4.80149C43.1873 4.81348 43.1251 4.81922 43.0638 4.81922V4.81922Z" fill="#DA387D"/>
<path d="M50.2285 4.13913C49.6886 4.13913 49.2509 3.70153 49.2509 3.16147V0.977654C49.2509 0.437598 49.6886 0 50.2285 0C50.7684 0 51.2062 0.437598 51.2062 0.977654V3.16147C51.2062 3.7014 50.7686 4.13913 50.2285 4.13913Z" fill="#DA387D"/>
<path d="M57.0917 6.02709C56.921 6.02709 56.7483 5.98238 56.5912 5.88853C56.1277 5.61166 55.9765 5.01138 56.2534 4.54784L57.3728 2.674C57.6498 2.21046 58.25 2.05938 58.7135 2.33612C59.1771 2.613 59.3283 3.21328 59.0514 3.67681L57.9319 5.55065C57.7488 5.85711 57.4245 6.02709 57.0917 6.02709V6.02709Z" fill="#DA387D"/>
<path d="M62.0247 11.1645C61.6775 11.1645 61.3411 10.9791 61.1641 10.6524C60.9069 10.1776 61.0833 9.58423 61.558 9.32704L63.478 8.28695C63.9529 8.02937 64.5461 8.20613 64.8033 8.68088C65.0605 9.15563 64.8842 9.749 64.4094 10.0062L62.4894 11.0463C62.3415 11.1266 62.1819 11.1645 62.0247 11.1645Z" fill="#DA387D"/>
<path d="M65.803 18.1937C65.7894 18.1937 65.7757 18.1935 65.7621 18.1928L63.582 18.1031C63.0425 18.081 62.6233 17.6257 62.6454 17.0861C62.6676 16.5466 63.1228 16.1253 63.6625 16.1495L65.8425 16.2392C66.382 16.2614 66.8012 16.7167 66.7791 17.2562C66.7574 17.7821 66.3244 18.1937 65.803 18.1937Z" fill="#DA387D"/>
<path d="M63.2704 26.0785C63.0864 26.0785 62.9004 26.0268 62.7351 25.9183L60.9112 24.722C60.4598 24.426 60.3338 23.8199 60.6299 23.3683C60.926 22.9169 61.5322 22.7907 61.9837 23.087L63.8076 24.2833C64.259 24.5793 64.385 25.1855 64.0889 25.637C63.9012 25.9231 63.5888 26.0785 63.2704 26.0785Z" fill="#DA387D"/>
<path d="M57.0638 31.5529C56.702 31.5529 56.3543 31.3511 56.1847 31.0041L55.2266 29.0432C54.9896 28.558 55.1908 27.9728 55.6758 27.7358C56.1609 27.4985 56.7464 27.6998 56.9834 28.185L57.9415 30.1459C58.1785 30.6311 57.9774 31.2164 57.4923 31.4533C57.3541 31.521 57.2079 31.5529 57.0638 31.5529Z" fill="#DA387D"/>
<path d="M49.327 33.1745C48.8319 33.1745 48.4072 32.7997 48.3556 32.2964L48.1328 30.1229C48.0778 29.5858 48.4686 29.1057 49.0056 29.0506C49.5419 28.9962 50.0228 29.3861 50.0779 29.9235L50.3007 32.097C50.3557 32.634 49.9649 33.1141 49.4279 33.1693C49.3941 33.1727 49.3603 33.1745 49.327 33.1745Z" fill="#DA387D"/>
<path d="M44.1793 35.5465C43.9203 35.5465 43.6617 35.4441 43.4695 35.2412L41.9658 33.6544C41.5944 33.2624 41.611 32.6436 42.0029 32.2721C42.3948 31.9006 43.0137 31.9173 43.3851 32.3094L44.8888 33.8962C45.2602 34.2882 45.2437 34.9069 44.8517 35.2784C44.6625 35.4577 44.4207 35.5465 44.1793 35.5465Z" fill="#DA387D"/>
<path d="M41.5303 40.5598C41.4796 40.5598 41.4282 40.5559 41.3766 40.5477L39.2184 40.207C38.6852 40.1227 38.3211 39.6222 38.4053 39.0888C38.4895 38.5554 38.9906 38.1919 39.5235 38.2756L41.6816 38.6164C42.2149 38.7006 42.579 39.2011 42.4948 39.7345C42.4188 40.2162 42.0029 40.5598 41.5303 40.5598Z" fill="#DA387D"/>
<path d="M40.1364 48.1372C40.0066 48.1372 39.8747 48.1113 39.748 48.0563L37.7461 47.188C37.2508 46.9732 37.0234 46.3974 37.2383 45.9021C37.4531 45.4067 38.0289 45.1792 38.5242 45.3942L40.526 46.2625C41.0214 46.4773 41.2487 47.0531 41.0339 47.5484C40.874 47.9171 40.5142 48.1372 40.1364 48.1372V48.1372Z" fill="#DA387D"/>
<path d="M34.9452 54.5836C34.6416 54.5836 34.3425 54.4427 34.1514 54.1778L32.8757 52.4091C32.5598 51.9711 32.6587 51.36 33.0967 51.0441C33.5346 50.7282 34.1457 50.8274 34.4615 51.2651L35.7373 53.0339C36.0532 53.4718 35.9542 54.0829 35.5162 54.3988C35.3433 54.5235 35.1432 54.5836 34.9452 54.5836Z" fill="#DA387D"/>
<path d="M27.179 57.4653C26.6766 57.4653 26.2496 57.0806 26.206 56.5708L26.0203 54.3961C25.9743 53.858 26.3733 53.3847 26.9111 53.3388C27.4491 53.2927 27.9224 53.6917 27.9684 54.2298L28.1542 56.4045C28.2002 56.9426 27.8012 57.4159 27.2633 57.4618C27.2349 57.4641 27.2068 57.4653 27.179 57.4653V57.4653Z" fill="#DA387D"/>
<path d="M14.688 63.4675C10.9115 63.4675 7.83898 60.3952 7.83898 56.6186V53.8333C7.83898 52.2219 6.52799 50.9109 4.91667 50.9109C3.30534 50.9109 1.99422 52.2217 1.99422 53.8332V62.4897C1.99422 63.0298 1.55648 63.4674 1.01655 63.4674C0.476614 63.4674 0.0388794 63.0298 0.0388794 62.4897V53.8332C0.0388794 51.1436 2.22703 48.9554 4.91667 48.9554C7.6063 48.9554 9.79432 51.1436 9.79432 53.8332V56.6185C9.79432 59.3167 11.9896 61.5121 14.688 61.5121C16.6284 61.5121 18.3869 60.3643 19.1677 58.588L21.4052 53.4992C21.6226 53.005 22.1998 52.78 22.6937 52.9977C23.188 53.215 23.4125 53.7919 23.1952 54.2862L20.9576 59.375C19.8647 61.8611 17.4037 63.4675 14.688 63.4675V63.4675Z" fill="#DA387D"/>
<path d="M30.4651 41.5373C31.005 41.5373 31.4427 41.0996 31.4427 40.5597C31.4427 40.0197 31.005 39.582 30.4651 39.582C29.9251 39.582 29.4874 40.0197 29.4874 40.5597C29.4874 41.0996 29.9251 41.5373 30.4651 41.5373Z" fill="#DA387D"/>
<path d="M38.0335 28.6141C38.5734 28.6141 39.0112 28.1764 39.0112 27.6365C39.0112 27.0965 38.5734 26.6588 38.0335 26.6588C37.4936 26.6588 37.0558 27.0965 37.0558 27.6365C37.0558 28.1764 37.4936 28.6141 38.0335 28.6141Z" fill="#DA387D"/>
<path d="M25.9921 24.0425C26.532 24.0425 26.9697 23.6048 26.9697 23.0648C26.9697 22.5249 26.532 22.0872 25.9921 22.0872C25.4521 22.0872 25.0144 22.5249 25.0144 23.0648C25.0144 23.6048 25.4521 24.0425 25.9921 24.0425Z" fill="#DA387D"/>
<path d="M48.3505 12.4772C48.8904 12.4772 49.3281 12.0395 49.3281 11.4996C49.3281 10.9597 48.8904 10.5219 48.3505 10.5219C47.8105 10.5219 47.3728 10.9597 47.3728 11.4996C47.3728 12.0395 47.8105 12.4772 48.3505 12.4772Z" fill="#DA387D"/>
<path d="M50.2326 2.18391C45.0038 2.18391 39.9238 3.21124 35.1338 5.23723C30.5145 7.19101 26.3689 9.98505 22.8121 13.5417C19.2554 17.0986 16.4613 21.2443 14.5074 25.8636C12.4816 30.6536 11.4542 35.7336 11.4542 40.9622C11.4542 48.8915 17.9051 55.3424 25.8344 55.3424C33.7637 55.3424 40.2146 48.8915 40.2146 40.9622C40.2146 35.4382 44.7087 30.9442 50.2325 30.9442C58.1618 30.9442 64.6127 24.4933 64.6127 16.564C64.6128 8.63483 58.1618 2.18391 50.2326 2.18391V2.18391Z" fill="#DF75A5"/>
<path d="M53.9068 2.66021C57.2491 5.29574 59.3987 9.37993 59.3987 13.9569C59.3987 21.8861 52.9478 28.3371 45.0185 28.3371C39.4947 28.3371 35.0006 32.8311 35.0006 38.355C35.0006 46.2843 28.5497 52.7353 20.6204 52.7353C19.3509 52.7353 18.1197 52.5692 16.9464 52.2588C19.3944 54.1891 22.4824 55.3424 25.8347 55.3424C33.764 55.3424 40.2149 48.8914 40.2149 40.9622C40.2149 35.4382 44.7089 30.9442 50.2327 30.9442C58.162 30.9442 64.6129 24.4933 64.6129 16.564C64.6129 9.90434 60.0619 4.28809 53.9068 2.66021V2.66021Z" fill="#DD5790"/>
<path d="M25.8346 51.1059C20.2414 51.1059 15.691 46.5555 15.691 40.9623C15.691 36.3035 16.6057 31.7788 18.4095 27.514C20.1498 23.3994 22.6389 19.7063 25.8079 16.5375C28.977 13.3684 32.67 10.8794 36.7843 9.13917C41.0494 7.33504 45.5741 6.42046 50.2327 6.42046C55.826 6.42046 60.3763 10.9709 60.3763 16.5641C60.3763 22.1573 55.8258 26.7077 50.2327 26.7077C42.3729 26.7077 35.9783 33.1023 35.9783 40.9623C35.9784 46.5555 31.4279 51.1059 25.8346 51.1059V51.1059Z" fill="#F9C6DA"/>
<path d="M51.96 6.57047C53.9289 8.42191 55.1621 11.0474 55.1621 13.9569C55.1621 19.5501 50.6116 24.1006 45.0184 24.1006C37.1586 24.1006 30.764 30.4952 30.764 38.3551C30.764 43.9483 26.2135 48.4988 20.6203 48.4988C20.0313 48.4988 19.4548 48.4455 18.893 48.3486C20.7091 50.0564 23.1508 51.1059 25.8346 51.1059C31.4279 51.1059 35.9782 46.5554 35.9782 40.9623C35.9782 33.1023 42.3727 26.7077 50.2326 26.7077C55.826 26.7077 60.3763 22.1572 60.3763 16.5641C60.3763 11.5598 56.7328 7.39314 51.96 6.57047Z" fill="#EFA5C3"/>
<path d="M54.3329 19.072C55.5762 19.072 56.584 18.0641 56.584 16.8209C56.584 15.5776 55.5762 14.5698 54.3329 14.5698C53.0897 14.5698 52.0818 15.5776 52.0818 16.8209C52.0818 18.0641 53.0897 19.072 54.3329 19.072Z" fill="#F6E781"/>
<path d="M56.5842 16.8209C56.5842 15.8589 55.9796 15.0401 55.1307 14.7179C55.0148 16.2711 54.5484 17.7271 53.8094 19.0082C53.9778 19.0484 54.1525 19.072 54.3331 19.072C55.5765 19.072 56.5842 18.0641 56.5842 16.8209V16.8209Z" fill="#F4DD45"/>
<path d="M24.12 45.5325C25.1538 45.5325 25.9919 44.6944 25.9919 43.6606C25.9919 42.6268 25.1538 41.7887 24.12 41.7887C23.0862 41.7887 22.2481 42.6268 22.2481 43.6606C22.2481 44.6944 23.0862 45.5325 24.12 45.5325Z" fill="#F6E781"/>
<path d="M21.3035 37.5108C20.8653 37.5108 20.427 37.3437 20.0927 37.0092C19.4238 36.3404 19.4238 35.2561 20.0925 34.5874C21.1141 33.5657 22.1682 33.4656 22.7979 33.4059C23.2548 33.3625 23.2663 33.3511 23.4053 33.2122C23.5442 33.0732 23.5556 33.0619 23.599 32.6047C23.6588 31.975 23.7588 30.921 24.7805 29.8993C25.8022 28.8776 26.8563 28.7773 27.4861 28.7175C27.9432 28.6741 27.9546 28.6627 28.0938 28.5235C28.233 28.3843 28.2443 28.373 28.2877 27.9158C28.3476 27.2861 28.4478 26.232 29.4696 25.2104C30.1384 24.5415 31.2226 24.5415 31.8914 25.2104C32.5602 25.8791 32.5602 26.9636 31.8914 27.6323C31.7523 27.7714 31.7409 27.7828 31.6975 28.24C31.6376 28.8697 31.5374 29.9238 30.5157 30.9454C29.4939 31.9671 28.44 32.0672 27.8102 32.1272C27.353 32.1706 27.3416 32.182 27.2024 32.3212C27.0634 32.4601 27.0521 32.4715 27.0087 32.9286C26.9489 33.5583 26.8489 34.6123 25.8271 35.634C24.8054 36.6558 23.7515 36.7559 23.1217 36.8156C22.6648 36.859 22.6534 36.8703 22.5144 37.0093C22.1802 37.3437 21.7419 37.5108 21.3035 37.5108V37.5108Z" fill="#8EAADF"/>
<path d="M33.452 20.5075C32.5209 20.5075 31.7662 19.7526 31.7662 18.8216C31.7662 15.7445 34.2696 13.241 37.3468 13.241C38.2779 13.241 39.0326 13.9959 39.0326 14.9269C39.0326 15.858 38.2777 16.6128 37.3468 16.6128C36.1289 16.6128 35.1379 17.6036 35.1379 18.8216C35.1379 19.7527 34.383 20.5075 33.452 20.5075V20.5075Z" fill="#DF75A5"/>
<path d="M43.5425 13.9545C44.2661 13.2309 45.4393 13.2309 46.1629 13.9545C48.5543 16.3458 48.5543 20.2371 46.1629 22.6285C45.4393 23.3521 44.2661 23.3521 43.5425 22.6285C42.8189 21.9049 42.8189 20.7317 43.5425 20.0081C44.489 19.0616 44.489 17.5214 43.5425 16.5749C42.8189 15.8513 42.8189 14.6781 43.5425 13.9545Z" fill="#90DFC3"/>
<path d="M30.465 41.5373C31.0049 41.5373 31.4426 41.0996 31.4426 40.5597C31.4426 40.0197 31.0049 39.582 30.465 39.582C29.925 39.582 29.4873 40.0197 29.4873 40.5597C29.4873 41.0996 29.925 41.5373 30.465 41.5373Z" fill="#ECF4FF"/>
<path d="M30.6838 39.6074C30.6025 40.2647 30.4587 40.9024 30.2574 41.5146C30.3244 41.5291 30.3938 41.5372 30.4651 41.5372C31.005 41.5372 31.4428 41.0995 31.4428 40.5595C31.4428 40.0951 31.1183 39.7069 30.6838 39.6074Z" fill="#DDEAFB"/>
<path d="M38.0337 28.6141C38.5736 28.6141 39.0113 28.1764 39.0113 27.6365C39.0113 27.0965 38.5736 26.6588 38.0337 26.6588C37.4937 26.6588 37.056 27.0965 37.056 27.6365C37.056 28.1764 37.4937 28.6141 38.0337 28.6141Z" fill="#DDEAFB"/>
<path d="M25.9921 24.0426C26.532 24.0426 26.9697 23.6049 26.9697 23.065C26.9697 22.525 26.532 22.0873 25.9921 22.0873C25.4521 22.0873 25.0144 22.525 25.0144 23.065C25.0144 23.6049 25.4521 24.0426 25.9921 24.0426Z" fill="#ECF4FF"/>
<path d="M48.3506 12.4772C48.8906 12.4772 49.3283 12.0395 49.3283 11.4996C49.3283 10.9597 48.8906 10.5219 48.3506 10.5219C47.8107 10.5219 47.373 10.9597 47.373 11.4996C47.373 12.0395 47.8107 12.4772 48.3506 12.4772Z" fill="#ECF4FF"/>
</svg>
