<svg width="65" height="64" viewBox="0 0 65 64" fill="none" xmlns="http://www.w3.org/2000/svg">
<path d="M53.0414 26.0257V13.2577H37.143V26.0257C30.3002 29.0724 25.5294 35.9315 25.5294 43.905C25.5294 54.7093 34.2877 63.4675 45.0919 63.4675C55.8961 63.4675 64.6549 54.7093 64.6549 43.905C64.6549 35.9315 59.8837 29.0724 53.0414 26.0257V26.0257Z" fill="#C9FFF7"/>
<path d="M60.6958 43.9055C60.6958 52.5097 53.6965 59.5086 45.0913 59.5086C42.2607 59.5086 39.6043 58.7514 37.3137 57.4277C32.6394 54.7304 29.4883 49.6791 29.4883 43.9055C29.4883 39.5892 31.2763 35.5499 34.2822 32.6558H55.9014C58.9078 35.5499 60.6958 39.5892 60.6958 43.9055V43.9055Z" fill="#F7D360"/>
<path d="M40.717 26.0261V22.4925C40.717 20.578 42.2686 19.0263 44.1827 19.0263H53.0414V15.2372L49.8888 12.3681L46.9198 11.5765L37.1434 15.2367V26.0261C30.2997 29.0729 25.5294 35.9309 25.5294 43.9055C25.5294 54.6629 34.2124 63.3922 44.9541 63.466C39.0712 63.3301 34.3261 54.6245 34.3261 43.9055C34.3261 35.9309 36.9519 29.0729 40.717 26.0261V26.0261Z" fill="#72CEC0"/>
<path d="M37.3137 57.4277C32.6394 54.7304 29.4883 49.6791 29.4883 43.9055C29.4883 39.5892 31.2763 35.5499 34.2822 32.6558H36.2843C35.0501 35.8374 34.326 39.7172 34.326 43.9055C34.326 49.1508 35.4622 53.9137 37.3137 57.4277V57.4277Z" fill="#E58E13"/>
<path d="M38.3815 54.9608L25.6771 32.9561V21.571H13.6033V32.9561L0.898825 54.9608C-1.28397 58.7416 1.44428 63.4676 5.81037 63.4676H33.4705C37.8361 63.4676 40.5648 58.7416 38.3815 54.9608Z" fill="#E6E6E6"/>
<path d="M25.6771 21.571L21.9805 19.494L14.896 19.5678L13.6027 21.571V32.9556L0.898794 54.9613C-1.28548 58.7421 1.44376 63.4675 5.80886 63.4675H13.3601C11.3776 63.4675 10.1385 58.7421 11.1295 54.9613L16.8991 32.9556V27.1107C16.8991 25.9095 17.8728 24.9362 19.074 24.9362H25.6771V21.571Z" fill="#CCCCCC"/>
<path d="M30.0544 18.9978C30.0544 20.419 28.9024 21.5709 27.4812 21.5709H11.7984C11.0885 21.5709 10.4446 21.2834 9.97891 20.8172C9.51321 20.3515 9.22522 19.7076 9.22522 18.9978C9.22522 17.5765 10.3772 16.4246 11.7984 16.4246H27.4812C28.1911 16.4246 28.835 16.7121 29.3007 17.1778C29.7664 17.644 30.0544 18.2879 30.0544 18.9978Z" fill="#CCCCCC"/>
<path d="M30.0546 18.9978C30.0546 20.419 28.9026 21.5709 27.4814 21.5709H18.0393C17.328 21.5709 16.6855 21.2834 16.2193 20.8172C15.7536 20.3515 15.4661 19.7076 15.4661 18.9978C15.4661 17.5765 16.6181 16.4246 18.0393 16.4246H27.4814C28.1912 16.4246 28.8352 16.7121 29.3009 17.1778C29.7666 17.644 30.0546 18.2879 30.0546 18.9978Z" fill="#E6E6E6"/>
<path d="M57.4734 12.6635C57.4734 14.0848 56.3215 15.2367 54.9002 15.2367H35.5007C34.7893 15.2367 34.1464 14.9492 33.6807 14.4835C33.215 14.0173 32.927 13.3734 32.927 12.6635C32.927 11.2423 34.0794 10.0903 35.5007 10.0903H54.9002C55.6101 10.0903 56.254 10.3778 56.7197 10.844C57.1859 11.3097 57.4734 11.9536 57.4734 12.6635V12.6635Z" fill="#72CEC0"/>
<path d="M57.4734 12.6635C57.4734 14.0848 56.3215 15.2367 54.9002 15.2367H41.514C40.8041 15.2367 40.1602 14.9492 39.694 14.4835C39.2283 14.0173 38.9408 13.3734 38.9408 12.6635C38.9408 11.2423 40.0927 10.0903 41.514 10.0903H54.9002C55.6101 10.0903 56.254 10.3778 56.7197 10.844C57.1859 11.3097 57.4734 11.9536 57.4734 12.6635Z" fill="#C9FFF7"/>
<path d="M34.9528 58.6525C34.7682 58.973 34.33 59.5086 33.471 59.5086H5.81036C4.94984 59.5086 4.51171 58.973 4.3271 58.6525C4.14249 58.333 3.89684 57.6852 4.3271 56.9408L13.6633 40.7702H25.618L34.9528 56.9408C35.383 57.6852 35.1374 58.333 34.9528 58.6525Z" fill="#FC5F61"/>
<path d="M11.1295 54.9613C10.7406 56.446 10.6953 58.0755 10.9041 59.5085H5.81036C4.94984 59.5085 4.51171 58.9729 4.3271 58.6524C4.14249 58.3329 3.89684 57.6851 4.3271 56.9407L13.6633 40.7701H14.8497L11.1295 54.9613Z" fill="#E83842"/>
<path d="M21.7684 52.0524C20.8694 52.0524 20.4416 50.897 21.1264 50.3107C21.8073 49.7278 22.876 50.3225 22.7475 51.2086C22.6781 51.6881 22.2518 52.0524 21.7684 52.0524Z" fill="#E83842"/>
<path d="M17.4032 11.4771C16.5392 11.4771 16.0952 10.397 16.7036 9.78658C17.0325 9.45724 17.5656 9.40604 17.9521 9.664C18.2908 9.88947 18.4596 10.3138 18.3666 10.7101C18.2632 11.1527 17.8585 11.4771 17.4032 11.4771Z" fill="#E83842"/>
<path d="M21.342 7.71602C20.4465 7.71602 20.0089 6.55619 20.6991 5.97332C21.0274 5.69567 21.5064 5.66023 21.8712 5.89013C22.2217 6.11116 22.4004 6.54536 22.3059 6.94953C22.2025 7.39111 21.7978 7.71602 21.342 7.71602Z" fill="#E83842"/>
<path d="M19.1965 1.97595C18.7643 1.97595 18.3754 1.6855 18.2489 1.27346C18.1234 0.862401 18.2888 0.401128 18.6462 0.162861C19.3807 -0.327456 20.3746 0.365684 20.1555 1.22669C20.0448 1.66089 19.6455 1.97595 19.1965 1.97595V1.97595Z" fill="#E83842"/>
<path d="M53.7823 38.7921C52.9026 38.7921 52.464 37.6687 53.1128 37.0731C53.7346 36.5025 54.7723 36.9579 54.7723 37.8021C54.7723 38.3402 54.3214 38.7921 53.7823 38.7921Z" fill="white"/>
<path d="M54.4714 45.3927C53.6094 45.3927 53.1575 44.3121 53.7719 43.7037C54.0791 43.3994 54.5566 43.329 54.9381 43.5314C55.3039 43.7258 55.5097 44.1398 55.4506 44.5489C55.3807 45.0289 54.9544 45.3927 54.4714 45.3927V45.3927Z" fill="white"/>
<path d="M41.5628 52.8445C41.1395 52.8445 40.7565 52.5663 40.6235 52.1651C40.4827 51.7417 40.6536 51.2613 41.0292 51.021C41.7745 50.544 42.7532 51.2613 42.5164 52.1173C42.3997 52.5407 42.0029 52.8445 41.5628 52.8445V52.8445Z" fill="white"/>
<path d="M37.0099 44.5307C36.1154 44.5307 35.6812 43.3772 36.3631 42.7929C36.6904 42.5118 37.1699 42.4768 37.5357 42.7038C37.8828 42.9199 38.0629 43.3447 37.9783 43.745C37.8828 44.1969 37.4727 44.5307 37.0099 44.5307V44.5307Z" fill="white"/>
<path d="M49.0833 42.1554C48.1987 42.1554 47.7605 41.0256 48.4192 40.4334C48.7476 40.138 49.2389 40.0967 49.613 40.3305C49.9551 40.5451 50.1329 40.9636 50.0546 41.3599C49.964 41.8167 49.5485 42.1554 49.0833 42.1554V42.1554Z" fill="white"/>
<path d="M14.8419 54.1022C14.4446 54.1022 14.0798 53.857 13.9272 53.4913C13.7598 53.0886 13.8849 52.6047 14.2285 52.3354C14.9339 51.7835 15.9933 52.4196 15.8117 53.3062C15.7181 53.763 15.3095 54.1022 14.8419 54.1022Z" fill="#E83842"/>
<path d="M17.415 47.6981C17.001 47.6981 16.6229 47.4318 16.4831 47.0419C16.3345 46.6274 16.4866 46.1479 16.8489 45.8968C17.5534 45.409 18.5414 46.0278 18.3893 46.878C18.3056 47.3456 17.8916 47.6981 17.415 47.6981Z" fill="#E83842"/>
</svg>
