<svg width="45" height="58" viewBox="0 0 45 58" fill="none" xmlns="http://www.w3.org/2000/svg">
<path d="M43.9857 15.4846H28.4338V25.9772L28.625 26.0934H44.4919L44.6974 25.9772V16.1963C44.6974 15.8031 44.3788 15.4846 43.9857 15.4846Z" fill="#EA9B58"/>
<path d="M43.9857 15.4846H40.7325L40.6197 15.6321V21.4304C40.6197 21.8348 40.2908 22.1637 39.8865 22.1637C39.4822 22.1637 39.1532 21.8348 39.1532 21.4304V15.6321L39.0404 15.4846H37.4116L37.2988 15.6321V21.4304C37.2988 21.8348 36.9699 22.1637 36.5656 22.1637C36.1613 22.1637 35.8323 21.8348 35.8323 21.4304V15.6321L35.7195 15.4846H34.0907L33.9779 15.6321V21.4304C33.9779 21.8348 33.649 22.1637 33.2447 22.1637C32.8404 22.1637 32.5114 21.8348 32.5114 21.4304V15.6321L32.3986 15.4846H28.4338V25.9772L28.6251 26.0934H44.492L44.6975 25.9772V16.1963C44.6974 15.8031 44.3788 15.4846 43.9857 15.4846Z" fill="#EA9B58"/>
<path d="M32.0919 15.4846H28.4338V25.9772L28.625 26.0933H32.2831L32.0919 25.9772V15.4846Z" fill="#D88A55"/>
<path d="M33.5051 33.7339V45.3012C33.5051 46.9914 34.8753 48.3615 36.5654 48.3615C38.2557 48.3615 39.6257 46.9913 39.6257 45.3012V33.7339H33.5051Z" fill="#FE646F"/>
<path d="M35.9269 45.3012V33.8467H33.5052V45.3012C33.5052 46.9914 34.8754 48.3615 36.5656 48.3615C36.9957 48.3615 37.405 48.2723 37.7765 48.112C36.6886 47.6429 35.9269 46.5611 35.9269 45.3012Z" fill="#FD4755"/>
<path d="M44.6974 25.9772H28.4338V29.5575C28.4338 31.9263 30.354 33.8466 32.7228 33.8466H40.4082C42.777 33.8466 44.6972 31.9263 44.6972 29.5575V25.9772H44.6974Z" fill="#A2C7F8"/>
<path d="M32.0919 29.5575V25.9772H28.4338V29.5575C28.4338 31.9263 30.354 33.8466 32.7228 33.8466H36.3809C34.0121 33.8466 32.0919 31.9263 32.0919 29.5575Z" fill="#8DB3DF"/>
<path d="M33.2448 22.2764C33.7121 22.2764 34.0908 21.8977 34.0908 21.4303V15.4844H32.3987V21.4303C32.3987 21.8977 32.7774 22.2764 33.2448 22.2764Z" fill="#FFBD86"/>
<path d="M36.5657 22.2764C37.0331 22.2764 37.4118 21.8976 37.4118 21.4303V15.4844H35.7196V21.4303C35.7196 21.8976 36.0983 22.2764 36.5657 22.2764Z" fill="#FFBD86"/>
<path d="M39.8865 22.2764C40.3539 22.2764 40.7326 21.8976 40.7326 21.4303V15.4844H39.0404V21.4303C39.0404 21.8976 39.4191 22.2764 39.8865 22.2764Z" fill="#FFBD86"/>
<path d="M36.5656 45.9341C36.0982 45.9341 35.7195 45.5554 35.7195 45.088V43.1273C35.7195 42.6599 36.0982 42.2812 36.5656 42.2812C37.0329 42.2812 37.4116 42.6599 37.4116 43.1273V45.088C37.4116 45.5554 37.0329 45.9341 36.5656 45.9341Z" fill="#647FA0"/>
<path d="M18.3886 27.2354C18.7041 27.2354 19.0106 27.2735 19.3048 27.3436V12.9846H16.1315C15.4878 12.9846 14.966 13.5063 14.966 14.15V17.8093C14.966 18.3073 14.6493 18.7492 14.1783 18.9108C13.6683 19.0859 13.1728 19.2919 12.6938 19.5265C12.246 19.7459 11.7088 19.6583 11.3561 19.3055L8.76791 16.7173C8.31273 16.2622 7.57484 16.2622 7.11965 16.7173L3.92758 19.9094C3.47251 20.3646 3.47251 21.1025 3.92758 21.5577L6.51578 24.1459C6.86842 24.4985 6.95608 25.0357 6.73666 25.4836C6.50202 25.9626 6.29602 26.4581 6.12094 26.9681C5.95929 27.4391 5.51741 27.7559 5.01947 27.7559H1.36014C0.716448 27.7559 0.194702 28.2776 0.194702 28.9213V33.4357C0.194702 34.0793 0.71656 34.6011 1.36014 34.6011H5.01947C5.51741 34.6011 5.95929 34.9179 6.12094 35.3888C6.29602 35.8989 6.50202 36.3943 6.73666 36.8733C6.95608 37.3212 6.86831 37.8584 6.51567 38.211L3.92747 40.7991C3.47239 41.2542 3.47239 41.9922 3.92747 42.4474L7.11954 45.6394C7.57472 46.0946 8.31261 46.0946 8.7678 45.6394L11.356 43.0512C11.7086 42.6986 12.2458 42.6108 12.6937 42.8302C13.1727 43.0649 13.6683 43.2709 14.1782 43.446C14.6491 43.6076 14.9659 44.0495 14.9659 44.5474V48.2068C14.9659 48.8504 15.4877 49.3722 16.1314 49.3722H19.3047V35.0132C19.0106 35.0832 18.7041 35.1214 18.3885 35.1214C16.2108 35.1214 14.4454 33.356 14.4454 31.1783C14.4455 29.0006 16.2109 27.2354 18.3886 27.2354V27.2354Z" fill="#8DB3DF"/>
<path d="M28.4075 10.8558H19.4023L19.1798 11.0572V43.6604L19.4198 43.7732H28.4158L28.6479 43.6604V11.0572L28.4075 10.8558Z" fill="#FED402"/>
<path d="M28.1819 48.796H19.6176L19.1797 48.9088V53.2584C19.1797 55.873 21.2992 57.9925 23.9138 57.9925C26.5283 57.9925 28.6478 55.8729 28.6478 53.2584V48.9088L28.1819 48.796Z" fill="#FE646F"/>
<path d="M18.3886 27.2354C18.7042 27.2354 19.0107 27.2735 19.3049 27.3436V22.9115C19.0039 22.8786 18.6984 22.8602 18.3886 22.8602C13.7946 22.8602 10.0704 26.5844 10.0704 31.1784C10.0704 35.7725 13.7946 39.4967 18.3886 39.4967C18.6984 39.4967 19.0038 39.4784 19.3049 39.4454V35.0133C19.0108 35.0833 18.7043 35.1215 18.3886 35.1215C16.211 35.1215 14.4456 33.3561 14.4456 31.1784C14.4456 29.0006 16.211 27.2354 18.3886 27.2354Z" fill="#647FA0"/>
<path d="M19.2927 34.1677C19.2319 34.1686 19.1703 34.1755 19.1087 34.1901C18.8714 34.2466 18.6292 34.2753 18.3885 34.2753C16.6809 34.2753 15.2916 32.8861 15.2916 31.1784C15.2916 29.4707 16.6809 28.0815 18.3885 28.0815C18.6292 28.0815 18.8714 28.1101 19.1087 28.1666C19.1703 28.1812 19.2319 28.1881 19.2927 28.189V26.4773C18.9938 26.4199 18.6907 26.3893 18.3885 26.3893C15.7478 26.3893 13.5995 28.5377 13.5995 31.1784C13.5995 33.8191 15.7478 35.9675 18.3885 35.9675C18.6907 35.9675 18.9937 35.9369 19.2927 35.8795V34.1677Z" fill="#5E6F90"/>
<path d="M23.0678 10.8559H24.76V43.7732H23.0678V10.8559Z" fill="#FB8801"/>
<path d="M22.7947 53.2583V11.0571H19.1798V53.2583C19.1798 55.8729 21.2993 57.9924 23.9139 57.9924C24.5541 57.9924 25.1643 57.8645 25.7213 57.6342C24.0036 56.9239 22.7947 55.2326 22.7947 53.2583V53.2583Z" fill="#FAC600"/>
<path d="M19.1797 48.9087V53.2583C19.1797 55.8729 21.2992 57.9924 23.9138 57.9924C24.554 57.9924 25.1641 57.8646 25.7212 57.6342C24.0036 56.924 22.7946 55.2326 22.7946 53.2582V48.9086H19.1797V48.9087Z" fill="#FD4755"/>
<path d="M28.6479 11.0572C28.6479 10.7894 28.5946 10.5243 28.4908 10.2773L24.4115 0.564495C24.2262 0.123521 23.6015 0.123521 23.4163 0.564495L19.3368 10.2773C19.2332 10.5243 19.1797 10.7894 19.1797 11.0572H28.6479Z" fill="#FED2A4"/>
<path d="M25.7213 3.68312L24.4115 0.564495C24.2262 0.123521 23.6015 0.123521 23.4163 0.564495L19.3368 10.2773C19.2332 10.5243 19.1797 10.7894 19.1797 11.0572H22.7946C22.7946 10.7894 22.8479 10.5243 22.9517 10.2773L25.7213 3.68312Z" fill="#FFBD86"/>
<path d="M23.4164 0.564495L21.1664 5.9215H26.6615L24.4116 0.564495C24.2263 0.123521 23.6015 0.123521 23.4164 0.564495V0.564495Z" fill="#647FA0"/>
<path d="M19.1797 43.6604H28.6478V48.9088H19.1797V43.6604Z" fill="#0593FC"/>
<path d="M19.1797 43.6604H22.7946V48.9088H19.1797V43.6604Z" fill="#0182FC"/>
<path d="M33.9468 1.83298C33.3515 3.57984 32.6673 4.26392 30.9206 4.85922C30.6218 4.96109 30.6218 5.38209 30.9206 5.48385C32.6673 6.07915 33.3515 6.76334 33.9468 8.51009C34.0487 8.80892 34.4697 8.80892 34.5715 8.51009C35.1668 6.76322 35.851 6.07915 37.5977 5.48385C37.8965 5.38198 37.8965 4.96097 37.5977 4.85922C35.851 4.26392 35.1668 3.57973 34.5715 1.83298C34.4696 1.53415 34.0487 1.53415 33.9468 1.83298V1.83298Z" fill="#FED402"/>
<path d="M13.5654 4.35716L8.84246 1.63032C8.66795 1.52958 8.45293 1.52958 8.27841 1.63032L3.5554 4.35716C3.38088 4.4579 3.27338 4.64415 3.27338 4.84563V10.2992C3.27338 10.5007 3.38088 10.6869 3.5554 10.7877L8.27841 13.5145C8.45293 13.6152 8.66795 13.6152 8.84246 13.5145L13.5655 10.7877C13.74 10.6869 13.8475 10.5007 13.8475 10.2992V4.84563C13.8474 4.64415 13.7399 4.4579 13.5654 4.35716V4.35716ZM8.56044 9.94757C7.24868 9.94757 6.18534 8.88422 6.18534 7.57247C6.18534 6.26071 7.24868 5.19737 8.56044 5.19737C9.87219 5.19737 10.9355 6.26071 10.9355 7.57247C10.9355 8.88422 9.87219 9.94757 8.56044 9.94757Z" fill="#8DB3DF"/>
<path d="M8.56022 10.7937C6.78414 10.7937 5.33905 9.34858 5.33905 7.57239C5.33905 5.79631 6.78414 4.35121 8.56022 4.35121C10.3364 4.35121 11.7815 5.79631 11.7815 7.57239C11.7815 9.34869 10.3364 10.7937 8.56022 10.7937ZM8.56022 6.04347C7.71708 6.04347 7.0312 6.72936 7.0312 7.5725C7.0312 8.41564 7.71708 9.10164 8.56022 9.10164C9.40336 9.10164 10.0894 8.41564 10.0894 7.5725C10.0894 6.72936 9.40336 6.04347 8.56022 6.04347V6.04347Z" fill="#5E6F90"/>
<path d="M44.011 8.91879H42.8875V7.79543C42.8875 7.32806 42.5088 6.94936 42.0415 6.94936C41.5741 6.94936 41.1954 7.32806 41.1954 7.79543V8.91879H40.072C39.6047 8.91879 39.226 9.29749 39.226 9.76487C39.226 10.2322 39.6047 10.6109 40.072 10.6109H41.1954V11.7343C41.1954 12.2017 41.5741 12.5804 42.0415 12.5804C42.5088 12.5804 42.8875 12.2017 42.8875 11.7343V10.6109H44.011C44.4784 10.6109 44.8571 10.2322 44.8571 9.76487C44.8571 9.29749 44.4784 8.91879 44.011 8.91879Z" fill="#FED402"/>
</svg>
