<svg width="60" height="58" viewBox="0 0 60 58" fill="none" xmlns="http://www.w3.org/2000/svg">
<path d="M59.8866 28.7983C59.8866 28.7649 59.8866 28.7334 59.8816 28.7C59.876 28.6166 59.8598 28.5343 59.8334 28.455C59.8241 28.4214 59.8126 28.3886 59.799 28.3567C59.7524 28.2468 59.6857 28.1467 59.6022 28.0615L54.6835 23.1429C54.2975 22.77 53.6839 22.7753 53.3045 23.1549C52.9251 23.5344 52.9197 24.1479 53.2925 24.5338L56.5349 27.7782H34.3165C33.7732 27.7782 33.3328 28.2187 33.3328 28.7619C33.3328 29.3051 33.7733 29.7456 34.3165 29.7456H56.535L53.2956 32.9849C53.0399 33.232 52.9373 33.5977 53.0274 33.9417C53.1174 34.2855 53.386 34.5543 53.7299 34.6442C54.0738 34.7342 54.4396 34.6316 54.6866 34.3759L59.6053 29.4572C59.6142 29.4484 59.617 29.4366 59.625 29.4277C59.7073 29.3438 59.7739 29.2459 59.8218 29.1385C59.8218 29.1307 59.8218 29.1218 59.8277 29.1129C59.8644 29.0121 59.8844 28.9057 59.8866 28.7983Z" fill="#F0C419"/>
<path d="M55.9587 11.0823V11.0774C55.9587 11.0626 55.9498 11.0498 55.9478 11.0351C55.9326 10.9378 55.9031 10.8434 55.8603 10.7547C55.8418 10.7189 55.8208 10.6843 55.7974 10.6514C55.7582 10.5908 55.7123 10.5346 55.6607 10.4841C55.6302 10.4521 55.5974 10.4225 55.5623 10.3956C55.4895 10.3427 55.4097 10.2999 55.3252 10.2687C55.3026 10.2598 55.2868 10.2431 55.2632 10.2353C55.2566 10.2348 55.25 10.2348 55.2435 10.2353L48.5983 8.2432C48.2616 8.14222 47.8966 8.22845 47.6408 8.4695C47.385 8.71055 47.2771 9.06977 47.358 9.41192C47.4388 9.75407 47.696 10.0271 48.0328 10.128L52.4172 11.4482L33.0034 21.9151C32.6861 22.0776 32.4816 22.399 32.4687 22.7552C32.4558 23.1114 32.6367 23.4466 32.9413 23.6317C33.2459 23.8166 33.6268 23.8223 33.9369 23.6465L53.3508 13.1768L52.0405 17.5612C51.9348 17.8995 52.0191 18.2684 52.2613 18.527C52.5035 18.7857 52.866 18.8942 53.2105 18.8109C53.5549 18.7276 53.8279 18.4656 53.9253 18.1248L55.9174 11.4601C55.9174 11.4503 55.9174 11.4404 55.9174 11.4306C55.9523 11.318 55.9664 11.1999 55.9587 11.0823Z" fill="#E64C3C"/>
<path d="M55.9408 46.5901C55.9408 46.5743 55.9506 46.5605 55.9526 46.5458V46.5399C55.9628 46.4228 55.9515 46.3047 55.9191 46.1916C55.9191 46.1818 55.9191 46.1719 55.9191 46.1621L53.9271 39.4983C53.8298 39.1576 53.5567 38.8955 53.2122 38.8123C52.8678 38.7291 52.5052 38.8375 52.263 39.0961C52.0208 39.3548 51.9365 39.7237 52.0423 40.0619L53.3525 44.4455L33.9475 33.9757C33.4711 33.7318 32.8871 33.9133 32.6331 34.3844C32.3792 34.8554 32.5483 35.4431 33.0139 35.707L52.4169 46.1787L48.0305 47.494C47.6938 47.595 47.4366 47.8681 47.3558 48.2101C47.2749 48.5522 47.3827 48.9115 47.6385 49.1525C47.8943 49.3936 48.2594 49.4798 48.5961 49.3788L55.2245 47.3917C55.2343 47.3917 55.2442 47.3917 55.254 47.3868C55.2805 47.3789 55.2982 47.3592 55.3238 47.3494C55.4049 47.3192 55.4815 47.2785 55.5521 47.2284C55.5867 47.1995 55.6195 47.1687 55.6504 47.1359C55.7008 47.0865 55.7457 47.0317 55.7843 46.9726C55.8078 46.9389 55.8291 46.9037 55.8482 46.8673C55.8926 46.78 55.9238 46.6865 55.9408 46.5901Z" fill="#3B97D3"/>
<path d="M5.78874 21.8759H1.85375C1.31043 21.8759 0.870056 22.3162 0.870056 22.8596C0.870056 23.4029 1.31054 23.8432 1.85375 23.8432H5.78862C6.33194 23.8432 6.77231 23.4028 6.77231 22.8596C6.77231 22.3164 6.33194 21.8759 5.78874 21.8759Z" fill="#E64C3C"/>
<path d="M26.3094 21.8758H10.7074C10.1641 21.8758 9.72375 22.3162 9.72375 22.8595C9.72375 23.4028 10.1642 23.8432 10.7074 23.8432H26.3094C26.8527 23.8432 27.2931 23.4027 27.2931 22.8595C27.2931 22.3163 26.8527 21.8758 26.3094 21.8758Z" fill="#E64C3C"/>
<path d="M5.78874 33.6807H1.85375C1.31043 33.6807 0.870056 34.1212 0.870056 34.6644C0.870056 35.2077 1.31054 35.648 1.85375 35.648H5.78862C6.33194 35.648 6.77231 35.2076 6.77231 34.6644C6.77243 34.121 6.33194 33.6807 5.78874 33.6807Z" fill="#3B97D3"/>
<path d="M26.3094 33.6807H10.7074C10.1641 33.6807 9.72375 34.1212 9.72375 34.6644C9.72375 35.2077 10.1642 35.648 10.7074 35.648H26.3094C26.8527 35.648 27.2931 35.2076 27.2931 34.6644C27.2931 34.121 26.8527 33.6807 26.3094 33.6807Z" fill="#3B97D3"/>
<path d="M26.4472 27.7781H10.7074C10.1641 27.7781 9.72375 28.2186 9.72375 28.7618C9.72375 29.305 10.1642 29.7455 10.7074 29.7455H26.4471C26.9904 29.7455 27.4307 29.3051 27.4307 28.7618C27.4307 28.2185 26.9904 27.7781 26.4472 27.7781Z" fill="#F0C419"/>
<path d="M5.78874 27.7781H1.85375C1.31043 27.7781 0.870056 28.2186 0.870056 28.7618C0.870056 29.305 1.31054 29.7455 1.85375 29.7455H5.78862C6.33194 29.7455 6.77231 29.3051 6.77231 28.7618C6.77231 28.2185 6.33194 27.7781 5.78874 27.7781Z" fill="#F0C419"/>
<path d="M34.3167 28.7619C34.3167 39.2426 35.5955 48.8035 37.7075 56.023C37.797 56.3207 37.7406 56.6431 37.5554 56.8926C37.3701 57.1422 37.0779 57.2895 36.7671 57.29H23.9964C23.6856 57.2895 23.3934 57.1421 23.2081 56.8926C23.0229 56.643 22.9665 56.3206 23.0559 56.023C25.168 48.8035 26.4468 39.2426 26.4468 28.7619C26.4468 18.2813 25.168 8.72038 23.0559 1.50081C22.9665 1.20316 23.0229 0.88072 23.2081 0.631137C23.3934 0.381554 23.6856 0.234226 23.9964 0.233765H36.7672C37.078 0.234226 37.3702 0.38167 37.5555 0.631137C37.7407 0.880604 37.7971 1.20316 37.7077 1.50081C35.5956 8.7205 34.3167 18.2813 34.3167 28.7619Z" fill="#26B99A"/>
</svg>
