<svg width="58" height="57" viewBox="0 0 58 57" fill="none" xmlns="http://www.w3.org/2000/svg">
<path d="M47.0486 28.3142C47.0486 28.4767 47.0486 28.6297 47.0391 28.7923C47.0295 28.9357 47.0295 29.0696 47.0199 29.213C47.0199 29.3373 47.0104 29.4616 47.0008 29.5859C46.8054 32.3471 45.9821 35.0272 44.5936 37.4218C43.2051 39.8164 41.288 41.8624 38.9887 43.4036C36.6894 44.9448 34.0684 45.9405 31.3258 46.3149C28.5831 46.6893 25.7912 46.4324 23.1629 45.5639C22.338 45.2878 21.5329 44.9556 20.7533 44.5694C17.4722 42.9179 14.7685 40.3109 12.9986 37.092C12.8743 36.8912 12.7691 36.6904 12.664 36.4801C12.1442 35.4651 11.7247 34.4019 11.4113 33.3055L11.2966 32.9039C11.2488 32.7127 11.201 32.5214 11.1723 32.3302C10.9893 31.5662 10.8646 30.7895 10.7994 30.0066C10.7416 29.4443 10.7129 28.8794 10.7133 28.3142C10.7133 28.1707 10.7133 28.0273 10.7229 27.8839C10.7213 27.8359 10.7245 27.7878 10.7324 27.7405C10.7605 26.4766 10.9273 25.2196 11.2297 23.9922L11.2584 23.8774C11.9586 21.0952 13.3079 18.5184 15.1956 16.358C17.0833 14.1975 19.4559 12.5149 22.119 11.4478C24.7821 10.3806 27.6602 9.9594 30.5174 10.2185C33.3747 10.4777 36.1299 11.4098 38.5576 12.9386C39.007 13.2159 39.4373 13.5219 39.8581 13.8374C40.0589 13.9904 40.2501 14.1434 40.4413 14.2964C40.6326 14.4494 40.8047 14.6024 40.9864 14.7649C42.2426 15.8871 43.3339 17.1812 44.2278 18.6088C44.4 18.8766 44.5625 19.1443 44.7155 19.412C45.5295 20.8622 46.1438 22.4157 46.5418 24.0304C46.561 24.1165 46.5801 24.193 46.5992 24.279C46.7933 25.1191 46.9243 25.9725 46.9912 26.8321C47.0295 27.3197 47.0486 27.817 47.0486 28.3142V28.3142Z" fill="#9362F5"/>
<path d="M54.6983 50.3067C54.7037 51.3433 54.461 52.3662 53.9907 53.29C53.4386 54.4053 52.5854 55.3439 51.5275 55.9996C50.4697 56.6552 49.2495 57.0018 48.005 57C47.0118 57.0038 46.0309 56.7814 45.1364 56.3498C44.1618 55.8908 43.3132 55.202 42.6636 54.3426C42.014 53.4831 41.5829 52.4788 41.4073 51.4159C41.3414 51.0498 41.3094 50.6785 41.3116 50.3067C41.3143 48.7791 41.8394 47.2985 42.7997 46.1105C43.76 44.9226 45.0978 44.0989 46.5908 43.7761C48.0839 43.4534 49.6424 43.6511 51.0076 44.3363C52.3728 45.0216 53.4626 46.1532 54.0959 47.5433C54.4964 48.4093 54.702 49.3526 54.6983 50.3067V50.3067Z" fill="#50B4F8"/>
<path d="M54.0959 47.5433L51.9541 48.9393L48.9994 46.9696L46.0448 47.9544L45.0599 50.8995L41.4073 51.4159C41.3414 51.0498 41.3094 50.6785 41.3116 50.3067C41.3143 48.7791 41.8394 47.2985 42.7997 46.1105C43.76 44.9226 45.0978 44.0989 46.5908 43.7761C48.0839 43.4534 49.6424 43.6511 51.0076 44.3363C52.3728 45.0216 53.4626 46.1532 54.0959 47.5433V47.5433Z" fill="#C8D952"/>
<path d="M53.9905 53.29C53.4384 54.4053 52.5851 55.3439 51.5273 55.9996C50.4695 56.6552 49.2493 57.0018 48.0047 57C47.0116 57.0037 46.0306 56.7814 45.1362 56.3498L48.1291 54.6382L49.0852 51.7696L50.9976 52.7258L53.9905 53.29Z" fill="#C8D952"/>
<path d="M44.7157 19.4121C42.7555 19.7563 40.3651 19.785 37.6017 20.942C33.2127 22.7875 34.3028 25.5413 29.9043 25.5413C23.448 25.4909 17.0098 26.2294 10.7327 27.7405C10.7607 26.4767 10.9275 25.2197 11.2299 23.9923C14.3184 23.3038 17.7033 21.8695 23.3162 21.8695C27.7051 21.8695 26.615 17.2702 32.1036 17.2702C35.2133 17.1016 38.247 16.246 40.9866 14.765C42.2428 15.8871 43.3341 17.1812 44.2281 18.6089C44.4002 18.8766 44.5627 19.1444 44.7157 19.4121V19.4121Z" fill="#D0BAFA"/>
<path d="M47.0487 28.3142C47.0487 28.4768 47.0487 28.6298 47.0392 28.7923C47.0296 28.9358 47.0296 29.0696 47.02 29.2131C44.7683 29.3427 42.6244 30.2211 40.9291 31.7087C36.6167 35.8204 35.6413 34.7972 30.1432 34.7972C23.6603 34.7972 24.7408 37.8762 21.5088 37.8762C17.9996 37.8762 15.8864 36.4897 12.9987 37.0921C12.8744 36.8913 12.7692 36.6905 12.664 36.4801C12.1443 35.4652 11.7248 34.402 11.4114 33.3056C17.1661 31.7146 23.094 30.8347 29.0627 30.6856C39.8581 30.6856 35.5362 24.5277 43.0901 24.5277C44.2643 24.5304 45.4372 24.4473 46.5993 24.2791C46.7934 25.1192 46.9244 25.9726 46.9913 26.8321C47.0296 27.3198 47.0487 27.817 47.0487 28.3142V28.3142Z" fill="#D0BAFA"/>
<path d="M19.3191 16.8399H21.2315V18.7522H19.3191V16.8399Z" fill="#F98C96"/>
<path d="M23.1437 13.9713H25.0561V15.8837H23.1437V13.9713Z" fill="#F98C96"/>
<path d="M56.6105 35.9637C55.8497 35.9637 55.1201 35.6615 54.5821 35.1235C54.0441 34.5855 53.7419 33.8559 53.7419 33.0951C53.7419 32.8415 53.6412 32.5983 53.4619 32.419C53.2825 32.2397 53.0393 32.1389 52.7857 32.1389C52.5321 32.1389 52.2889 32.2397 52.1096 32.419C51.9303 32.5983 51.8295 32.8415 51.8295 33.0951C51.8295 33.8559 51.5273 34.5855 50.9893 35.1235C50.4514 35.6615 49.7217 35.9637 48.961 35.9637C48.7074 35.9637 48.4641 36.0644 48.2848 36.2438C48.1055 36.4231 48.0048 36.6663 48.0048 36.9199C48.0048 37.1735 48.1055 37.4167 48.2848 37.596C48.4641 37.7753 48.7074 37.8761 48.961 37.8761C49.7217 37.8761 50.4514 38.1783 50.9893 38.7163C51.5273 39.2542 51.8295 39.9839 51.8295 40.7447C51.8295 40.9983 51.9303 41.2415 52.1096 41.4208C52.2889 41.6001 52.5321 41.7009 52.7857 41.7009C53.0393 41.7009 53.2825 41.6001 53.4619 41.4208C53.6412 41.2415 53.7419 40.9983 53.7419 40.7447C53.7419 39.9839 54.0441 39.2542 54.5821 38.7163C55.1201 38.1783 55.8497 37.8761 56.6105 37.8761C56.8641 37.8761 57.1073 37.7753 57.2866 37.596C57.4659 37.4167 57.5667 37.1735 57.5667 36.9199C57.5667 36.6663 57.4659 36.4231 57.2866 36.2438C57.1073 36.0644 56.8641 35.9637 56.6105 35.9637ZM52.7857 37.9057C52.5072 37.5306 52.175 37.1984 51.7999 36.9199C52.175 36.6413 52.5072 36.3092 52.7857 35.9341C53.0643 36.3092 53.3964 36.6413 53.7716 36.9199C53.3964 37.1984 53.0643 37.5306 52.7857 37.9057V37.9057Z" fill="#D9176C"/>
<path d="M8.80098 17.7961C8.04019 17.7961 7.31055 17.4938 6.77259 16.9559C6.23463 16.4179 5.9324 15.6883 5.9324 14.9275C5.9324 14.6739 5.83166 14.4307 5.65234 14.2514C5.47302 14.072 5.22981 13.9713 4.97621 13.9713C4.72261 13.9713 4.4794 14.072 4.30008 14.2514C4.12076 14.4307 4.02002 14.6739 4.02002 14.9275C4.02002 15.6883 3.7178 16.4179 3.17983 16.9559C2.64187 17.4938 1.91224 17.7961 1.15144 17.7961C0.897846 17.7961 0.654634 17.8968 0.475314 18.0761C0.295993 18.2554 0.195251 18.4987 0.195251 18.7523C0.195251 19.0059 0.295993 19.2491 0.475314 19.4284C0.654634 19.6077 0.897846 19.7085 1.15144 19.7085C1.91224 19.7085 2.64187 20.0107 3.17983 20.5486C3.7178 21.0866 4.02002 21.8162 4.02002 22.577C4.02002 22.8306 4.12076 23.0738 4.30008 23.2532C4.4794 23.4325 4.72261 23.5332 4.97621 23.5332C5.22981 23.5332 5.47302 23.4325 5.65234 23.2532C5.83166 23.0738 5.9324 22.8306 5.9324 22.577C5.9324 21.8162 6.23463 21.0866 6.77259 20.5486C7.31055 20.0107 8.04019 19.7085 8.80098 19.7085C9.05458 19.7085 9.29779 19.6077 9.47711 19.4284C9.65643 19.2491 9.75717 19.0059 9.75717 18.7523C9.75717 18.4987 9.65643 18.2554 9.47711 18.0761C9.29779 17.8968 9.05458 17.7961 8.80098 17.7961ZM4.97621 19.7381C4.69766 19.363 4.3655 19.0308 3.99038 18.7523C4.3655 18.4737 4.69766 18.1415 4.97621 17.7664C5.25476 18.1415 5.58692 18.4737 5.96205 18.7523C5.58692 19.0308 5.25476 19.363 4.97621 19.7381V19.7381Z" fill="#D9176C"/>
<path d="M21.2314 39.7885H23.1438V41.7009H21.2314V39.7885Z" fill="#F98C96"/>
<path d="M26.0123 37.8761H27.9247V39.7885H26.0123V37.8761Z" fill="#F98C96"/>
<path d="M27.9248 1.5408H29.8372V3.45319H27.9248V1.5408Z" fill="#FCF05A"/>
<path d="M27.9248 5.36555H29.8372V7.27794H27.9248V5.36555Z" fill="#FCF05A"/>
<path d="M26.0123 3.45319H27.9247V5.36557H26.0123V3.45319Z" fill="#FCF05A"/>
<path d="M29.8372 3.45319H31.7495V5.36557H29.8372V3.45319Z" fill="#FCF05A"/>
<path d="M26.0123 49.3504H27.9247V51.2628H26.0123V49.3504Z" fill="#FCF05A"/>
<path d="M26.0123 53.1752H27.9247V55.0875H26.0123V53.1752Z" fill="#FCF05A"/>
<path d="M24.1 51.2628H26.0124V53.1752H24.1V51.2628Z" fill="#FCF05A"/>
<path d="M27.9248 51.2628H29.8372V53.1752H27.9248V51.2628Z" fill="#FCF05A"/>
<path d="M19.3191 4.40936H21.2315V6.32175H19.3191V4.40936Z" fill="#8EC13F"/>
<path d="M37.4867 7.27795H39.3991V9.19034H37.4867V7.27795Z" fill="#8EC13F"/>
<path d="M16.4505 51.2628H18.3629V53.1752H16.4505V51.2628Z" fill="#8EC13F"/>
<path d="M33.6619 54.1313H35.5742V56.0437H33.6619V54.1313Z" fill="#8EC13F"/>
<path d="M47.0008 29.5859C43.6341 33.2042 39.8201 36.3788 35.6508 39.033C31.7051 41.6017 27.5236 43.7885 23.163 45.5638C21.2429 46.346 19.2756 47.0071 17.2728 47.5431C15.2088 48.1298 13.0785 48.4511 10.9333 48.4993C7.97864 48.4993 5.89414 47.6388 4.79452 45.9559C2.36579 42.1885 6.00889 35.3134 10.7994 30.0066C10.8646 30.7894 10.9893 31.5662 11.1723 32.3301C6.88858 37.4362 4.81365 42.6857 6.30531 44.971C7.56748 46.9312 11.4018 47.2276 16.8234 45.8124C18.0856 45.4873 19.3956 45.0666 20.7534 44.5694C25.6399 42.7452 30.3091 40.3849 34.6755 37.5318C39.2772 34.5803 43.4257 30.9761 46.9913 26.832C51.1794 21.8407 53.13 17.1171 51.4567 14.545C50.0607 12.3935 44.9737 13.168 40.4414 14.2963C40.2501 14.1434 40.0589 13.9904 39.8581 13.8374C39.4374 13.5218 39.0071 13.2158 38.5577 12.9386C44.8685 11.2365 50.8256 10.2708 52.9675 13.5696C55.0807 16.8303 52.9579 23.0551 47.0008 29.5859V29.5859Z" fill="#91CDF2"/>
<path d="M14.5191 6.73289C14.4139 6.6564 14.2992 6.57034 14.1844 6.49384L13.0848 8.062C13.4482 8.32017 13.7542 8.54966 13.9932 8.75046C14.4331 9.13293 14.6625 9.43892 14.6817 9.65884C14.3065 9.66183 13.9329 9.6103 13.5725 9.50585C11.7486 8.99724 9.98774 8.28518 8.32299 7.3831L7.81621 7.12493C6.33411 6.3791 4.48866 5.46116 3.30298 4.6962C2.97508 4.50482 2.66752 4.28055 2.38504 4.02687C2.63365 4.03643 2.98744 4.06512 3.49422 4.13205C3.85757 4.18942 4.28786 4.27548 4.82333 4.39022L5.23449 2.51608C5.02413 2.46827 4.82333 2.43003 4.63209 2.39178C1.993 1.87544 0.730826 2.0858 0.319664 3.0898C-0.234928 4.43803 0.922065 5.55678 3.09262 6.80939C4.15399 7.43091 5.47354 8.09068 6.95564 8.83651L7.47198 9.08512C8.94104 9.85461 10.4656 10.513 12.033 11.0549C12.8447 11.3625 13.6999 11.54 14.5669 11.5808C14.8735 11.5867 15.1784 11.5348 15.4657 11.4278C15.6829 11.3526 15.8814 11.2317 16.048 11.0734C16.2146 10.9151 16.3454 10.7229 16.4315 10.5099C17.0626 8.96082 15.9343 7.77514 14.5191 6.73289V6.73289Z" fill="#91CDF2"/>
<path d="M7.47189 9.08511C8.94095 9.8546 10.4656 10.513 12.0329 11.0549C11.0841 11.7131 9.95579 12.0636 8.801 12.0589C7.36462 12.0589 5.98066 11.5193 4.92338 10.547C3.86609 9.5747 3.21265 8.24071 3.09253 6.80937C4.1539 7.4309 5.47345 8.09067 6.95554 8.8365L7.47189 9.08511Z" fill="#F9BB4B"/>
<path d="M14.5381 6.32178C14.5381 6.46521 14.5286 6.59907 14.519 6.73294C14.4746 7.43294 14.296 8.11789 13.9931 8.7505C13.8775 9.01527 13.7366 9.26824 13.5724 9.5059C11.7485 8.99728 9.98761 8.28523 8.32286 7.38315L7.81608 7.12498C6.33399 6.37915 4.48853 5.4612 3.30286 4.69625C3.3522 4.50362 3.41613 4.31503 3.49409 4.1321C3.76133 3.48601 4.14728 2.89574 4.63196 2.39183C5.41864 1.5541 6.43905 0.972286 7.56065 0.721976C8.68226 0.471666 9.85322 0.564424 10.9214 0.988201C11.9896 1.41198 12.9057 2.14719 13.5507 3.09833C14.1956 4.04947 14.5397 5.17258 14.5381 6.32178V6.32178Z" fill="#F9BB4B"/>
</svg>
