<svg width="68" height="70" viewBox="0 0 68 70" fill="none" xmlns="http://www.w3.org/2000/svg">
<path d="M8.00434 14.7476C3.01219 20.6004 0 28.1903 0 36.4839C0 54.9944 15.0056 69.9998 33.5159 69.9998C34.1265 69.9998 34.7342 69.9838 35.3374 69.9503L42.7909 62.4969V47.0845L30.1891 41.4634V19.0758L8.00434 14.7476Z" fill="#5877D1"/>
<path d="M63.7118 51.042C65.8386 46.64 67.0306 41.7002 67.0306 36.4843C67.0306 28.2779 64.0796 20.7592 59.1819 14.9326L30.1895 19.0763V41.4638L42.7912 47.085L63.7118 51.042Z" fill="#5877D1"/>
<path d="M8.88193 39.4261C8.88193 30.7636 11.8372 22.7918 16.7938 16.4624L8.0042 14.7476C3.01219 20.6004 0 28.1903 0 36.4839C0 51.0668 9.31437 63.4721 22.3174 68.0809C14.1081 61.243 8.88193 50.9454 8.88193 39.4261Z" fill="#385AC4"/>
<path d="M63.7118 51.042C58.5437 61.7458 47.8515 69.2805 35.3378 69.9507L34.467 67.8371C33.9086 66.4818 34.3631 64.9245 35.5501 64.0777C36.3802 63.489 36.8715 62.5339 36.8715 61.5162C36.8015 60.9087 37.1718 59.5235 36.0211 58.2962L34.3798 56.5459C33.3723 55.4715 33.2458 53.8405 34.076 52.6237L34.5165 51.9782C35.6954 50.2483 34.8871 47.8715 32.8999 47.2186L28.1346 45.6545C27.697 45.5105 27.3292 45.2126 27.0981 44.8142L23.8301 39.1926C23.1192 37.967 21.3573 37.9438 20.613 39.1505L19.8308 40.4181C19.4848 40.9779 18.8786 41.3093 18.2362 41.3093C17.0045 41.3093 16.1107 40.1461 16.419 38.96L18.1112 32.4821C18.2449 31.966 18.5938 31.5314 19.0678 31.2872L22.5161 29.5122C23.2934 29.1138 23.6709 28.2444 23.4888 27.4378C23.169 25.9972 22.0089 24.8937 20.555 24.6452C18.7946 24.2777 17.6671 24.3567 16.2563 23.4996L11.2521 20.4627C10.015 19.7111 9.10348 18.5233 8.69934 17.1336L8.00439 14.7479V14.7464C14.1522 7.53877 23.2991 2.96826 33.5161 2.96826C43.8188 2.96826 53.0354 7.61738 59.1819 14.9325L57.8198 17.3545C57.302 18.2797 56.3391 18.9228 55.2307 19.0118C54.123 19.1005 53.1359 19.746 52.6111 20.7243L51.3638 23.0488C50.7547 24.1841 49.535 24.8558 48.2484 24.7642C47.4695 24.7121 47.3228 24.6871 46.9516 24.6871C45.2581 24.6871 43.6341 25.3951 42.4799 26.6526C40.2026 29.139 41.2973 31.7779 39.4228 34.2688L36.5793 38.063C35.9179 38.9469 36.1068 40.2014 37.0009 40.8499L39.465 42.6365C39.9433 42.9826 40.551 43.0974 41.1237 42.9491C44.4904 42.1098 44.7076 41.93 45.5314 41.93C46.5432 41.93 47.5273 42.3312 48.2556 43.0711C50.3214 45.1705 52.5751 43.5184 54.7146 44.6586C56.6089 45.6799 56.7986 45.7223 57.2208 46.0498L63.7118 51.042Z" fill="#71D5B4"/>
<path d="M25.2923 3.98584C18.45 5.71191 12.4447 9.54072 8.00439 14.7466V14.7481L8.69934 17.1337C9.10348 18.5234 10.015 19.7112 11.2521 20.4628L13.3427 21.7315C16.2085 16.4282 20.3241 11.9016 25.2925 8.53926V3.98584H25.2923Z" fill="#31C695"/>
<path d="M23.6528 4.783e-05C19.4286 -0.0152647 16.1486 3.64825 16.4003 7.86507C16.6572 12.1687 19.5156 16.0436 21.559 18.2914C22.666 19.5091 24.5822 19.5128 25.6895 18.2952C27.8308 15.9405 30.8702 11.7966 30.8702 7.24423C30.8702 3.25231 27.6413 0.01454 23.6528 4.783e-05Z" fill="#F98797"/>
<path d="M50.2148 36.2735C45.9906 36.2582 42.7106 39.9217 42.9623 44.1385C43.2192 48.4421 46.0776 52.317 48.121 54.5648C49.228 55.7826 51.1442 55.7863 52.2515 54.5686C54.3928 52.2139 57.4322 48.07 57.4322 43.5177C57.4322 39.5258 54.2035 36.288 50.2148 36.2735Z" fill="#F98797"/>
<path d="M22.1006 7.69827C22.1006 4.77481 23.2446 2.12001 25.1065 0.151532C24.6371 0.0540517 24.1509 0.00196189 23.6528 4.78282e-05C19.4286 -0.0152647 16.1486 3.64839 16.4003 7.86507C16.6572 12.1687 19.5156 16.0436 21.559 18.2914C22.666 19.5091 24.5822 19.5128 25.6895 18.2952C26.0863 17.8589 26.5139 17.3609 26.9472 16.8106C24.0232 14.8364 22.1006 11.4919 22.1006 7.69827Z" fill="#E35B70"/>
<path d="M48.6627 43.9717C48.6627 41.0483 49.8066 38.3934 51.6686 36.425C51.1991 36.3275 50.7129 36.2754 50.2148 36.2735C45.9906 36.2582 42.7106 39.9218 42.9623 44.1385C43.2192 48.4421 46.0776 52.317 48.121 54.5648C49.228 55.7826 51.1442 55.7863 52.2515 54.5686C52.6483 54.1324 53.0759 53.6344 53.5092 53.084C50.5852 51.1098 48.6627 47.7654 48.6627 43.9717Z" fill="#E35B70"/>
<path d="M23.6257 9.89643C25.0904 9.89643 26.2778 8.70905 26.2778 7.24436C26.2778 5.77966 25.0904 4.59229 23.6257 4.59229C22.161 4.59229 20.9736 5.77966 20.9736 7.24436C20.9736 8.70905 22.161 9.89643 23.6257 9.89643Z" fill="#E8E7F9"/>
<path d="M50.1877 46.1699C51.6524 46.1699 52.8398 44.9825 52.8398 43.5178C52.8398 42.0531 51.6524 40.8657 50.1877 40.8657C48.723 40.8657 47.5356 42.0531 47.5356 43.5178C47.5356 44.9825 48.723 46.1699 50.1877 46.1699Z" fill="#E8E7F9"/>
</svg>
