<svg width="74" height="75" viewBox="0 0 74 75" fill="none" xmlns="http://www.w3.org/2000/svg">
<path d="M7 40.5C6.30969 40.5 5.75 39.9403 5.75 39.25V30.5C5.75 29.8097 6.30969 29.25 7 29.25C7.69031 29.25 8.25 29.8097 8.25 30.5V39.25C8.25 39.9403 7.69031 40.5 7 40.5Z" fill="#765C2B"/>
<path d="M49.5 39.25H12L30.75 1.75L49.5 39.25Z" fill="#765C2B"/>
<path d="M62 43H32L42.2 20.9L47 10.5L51.9469 21.2188L62 43Z" fill="#A17D3A"/>
<path d="M0.75 38C0.75 58.0203 16.9797 74.25 37 74.25C57.0203 74.25 73.25 58.0203 73.25 38H0.75Z" fill="#478CBF"/>
<path d="M72.4719 45.5C69.3187 60.4937 56.9 72.0734 41.4828 73.975C41.0219 73.3516 40.75 72.5828 40.75 71.75C40.75 69.6797 42.4297 68 44.5 68H38.25C37.2156 68 36.2781 67.5797 35.5984 66.9016C34.9203 66.2219 34.5 65.2844 34.5 64.25C34.5 62.1797 36.1797 60.5 38.25 60.5H44.5C43.8094 60.5 43.1844 60.2203 42.7312 59.7688C42.2797 59.3156 42 58.6906 42 58C42 56.6187 43.1187 55.5 44.5 55.5H54.5C53.1187 55.5 51.8687 54.9406 50.9641 54.0359C50.0594 53.1313 49.5 51.8813 49.5 50.5C49.5 47.7391 51.7391 45.5 54.5 45.5H72.4719Z" fill="#6ACD62"/>
<path d="M26.9998 58C26.9998 60.0703 25.3201 61.75 23.2498 61.75H19.4998C20.1904 61.75 20.8154 62.0297 21.2686 62.4812C21.7201 62.9344 21.9998 63.5594 21.9998 64.25C21.9998 65.6313 20.8811 66.75 19.4998 66.75H14.917C10.5998 63.4281 7.05293 59.1578 4.58887 54.25H23.2498C24.2842 54.25 25.2217 54.6703 25.9014 55.3484C26.5795 56.0281 26.9998 56.9656 26.9998 58Z" fill="#6ACD62"/>
<path d="M15.75 39.25C15.75 40.975 15.05 42.5375 13.9187 43.6687C12.7875 44.8 11.225 45.5 9.5 45.5H1.52812C1.01719 43.0797 0.75 40.5719 0.75 38H15.625C15.7062 38.4047 15.75 38.8219 15.75 39.25Z" fill="#6ACD62"/>
<path d="M37.6249 15.5L34.4999 19.25L30.7499 13L26.9999 19.25L23.9233 15.4031L30.7499 1.75L37.6249 15.5Z" fill="#6ACD62"/>
<path d="M51.9471 21.2188L49.5002 25.5L47.0002 23L44.5002 25.5L42.2002 20.9L47.0002 10.5L51.9471 21.2188Z" fill="#6ACD62"/>
<path d="M59.9551 19.25C63.4069 19.25 66.2051 16.4518 66.2051 13C66.2051 9.54822 63.4069 6.75 59.9551 6.75C56.5033 6.75 53.7051 9.54822 53.7051 13C53.7051 16.4518 56.5033 19.25 59.9551 19.25Z" fill="#EDCC55"/>
<path d="M59.9551 4.25C59.2648 4.25 58.7051 3.69031 58.7051 3V1.75C58.7051 1.05969 59.2648 0.5 59.9551 0.5C60.6454 0.5 61.2051 1.05969 61.2051 1.75V3C61.2051 3.69031 60.6454 4.25 59.9551 4.25Z" fill="#D85257"/>
<path d="M52.884 7.17867C52.5642 7.17867 52.2442 7.05664 52.0001 6.81258L51.1162 5.92867C50.6279 5.44055 50.6279 4.64914 51.1162 4.16102C51.6043 3.67289 52.3957 3.67289 52.8839 4.16102L53.7678 5.04492C54.2561 5.53305 54.2561 6.32445 53.7678 6.81258C53.5237 7.05664 53.2039 7.17867 52.884 7.17867Z" fill="#D85257"/>
<path d="M59.9551 25.5C59.2648 25.5 58.7051 24.9403 58.7051 24.25V23C58.7051 22.3097 59.2648 21.75 59.9551 21.75C60.6454 21.75 61.2051 22.3097 61.2051 23V24.25C61.2051 24.9403 60.6454 25.5 59.9551 25.5Z" fill="#D85257"/>
<path d="M67.9099 22.205C67.5901 22.205 67.2701 22.083 67.026 21.8389L66.1421 20.955C65.6538 20.4669 65.6538 19.6755 66.1421 19.1874C66.6302 18.6993 67.4216 18.6993 67.9097 19.1874L68.7937 20.0713C69.2819 20.5594 69.2819 21.3508 68.7937 21.8389C68.5497 22.0829 68.2299 22.205 67.9099 22.205Z" fill="#D85257"/>
<path d="M71.2051 14.25H69.9551C69.2648 14.25 68.7051 13.6903 68.7051 13C68.7051 12.3097 69.2648 11.75 69.9551 11.75H71.2051C71.8954 11.75 72.4551 12.3097 72.4551 13C72.4551 13.6903 71.8954 14.25 71.2051 14.25Z" fill="#D85257"/>
<path d="M67.026 7.17867C66.7061 7.17867 66.3862 7.05664 66.1421 6.81258C65.6538 6.32445 65.6538 5.53305 66.1421 5.04492L67.026 4.16102C67.5141 3.67289 68.3055 3.67289 68.7937 4.16102C69.2819 4.64914 69.2819 5.44055 68.7937 5.92867L67.9097 6.81258C67.6657 7.05664 67.3458 7.17867 67.026 7.17867Z" fill="#D85257"/>
<path d="M17 6.75C17 5.36922 15.8808 4.25 14.5 4.25C13.9469 4.25 13.4375 4.43172 13.0234 4.73578C12.4427 3.00078 10.8055 1.75 8.875 1.75C6.45875 1.75 4.5 3.70875 4.5 6.125V6.75C2.42891 6.75 0.75 8.42891 0.75 10.5C0.75 12.5711 2.42891 14.25 4.5 14.25H17C19.0711 14.25 20.75 12.5711 20.75 10.5C20.75 8.42891 19.0711 6.75 17 6.75Z" fill="#DFE9F0"/>
<path d="M13.25 26.75L7 18L0.75 26.75H4.32141L0.75 31.75H13.25L9.67859 26.75H13.25Z" fill="#6ACD62"/>
<path d="M65.75 33H63.25C63.25 30.9289 61.5711 29.25 59.5 29.25C57.4289 29.25 55.75 30.9289 55.75 33H54.5C53.1192 33 52 34.1192 52 35.5C52 36.8808 53.1192 38 54.5 38H55.75H59.5H62H63.25H65.75C67.1308 38 68.25 36.8808 68.25 35.5C68.25 34.1192 67.1308 33 65.75 33Z" fill="#6ACD62"/>
<path d="M37 33H34.5C34.5 30.9289 32.8211 29.25 30.75 29.25C28.6789 29.25 27 30.9289 27 33H25.75C24.3692 33 23.25 34.1192 23.25 35.5C23.25 36.8808 24.3692 38 25.75 38H27H30.75H33.25H34.5H37C38.3808 38 39.5 36.8808 39.5 35.5C39.5 34.1192 38.3808 33 37 33Z" fill="#6ACD62"/>
</svg>
